<svg width="40" height="40" viewBox="0 0 40 40" fill="none" xmlns="http://www.w3.org/2000/svg">
<g filter="url(#filter0_d)">
<circle cx="18" cy="18" r="16" fill="#2F2A7C"/>
<path d="M20.7487 11.6654V18.082H11.7379L11.197 18.6229L10.6654 19.1545V11.6654H20.7487ZM21.6654 9.83203H9.7487C9.24453 9.83203 8.83203 10.2445 8.83203 10.7487V23.582L12.4987 19.9154H21.6654C22.1695 19.9154 22.582 19.5029 22.582 18.9987V10.7487C22.582 10.2445 22.1695 9.83203 21.6654 9.83203ZM26.2487 13.4987H24.4154V21.7487H12.4987V23.582C12.4987 24.0862 12.9112 24.4987 13.4154 24.4987H23.4987L27.1654 28.1654V14.4154C27.1654 13.9112 26.7529 13.4987 26.2487 13.4987Z" fill="white"/>
</g>
<defs>
<filter id="filter0_d" x="0" y="0" width="40" height="40" filterUnits="userSpaceOnUse" color-interpolation-filters="sRGB">
<feFlood flood-opacity="0" result="BackgroundImageFix"/>
<feColorMatrix in="SourceAlpha" type="matrix" values="0 0 0 0 0 0 0 0 0 0 0 0 0 0 0 0 0 0 127 0" result="hardAlpha"/>
<feOffset dx="2" dy="2"/>
<feGaussianBlur stdDeviation="2"/>
<feColorMatrix type="matrix" values="0 0 0 0 0 0 0 0 0 0 0 0 0 0 0 0 0 0 0.15 0"/>
<feBlend mode="normal" in2="BackgroundImageFix" result="effect1_dropShadow"/>
<feBlend mode="normal" in="SourceGraphic" in2="effect1_dropShadow" result="shape"/>
</filter>
</defs>
</svg>
