<svg width="40" height="40" viewBox="0 0 40 40" fill="none" xmlns="http://www.w3.org/2000/svg">
<g filter="url(#filter0_d_1255_600)">
<circle cx="18" cy="18" r="16" fill="#2F2A7C"/>
<path d="M11 16H25V18H27V12C27 10.9 26.1 10 25 10H24V8H22V10H14V8H12V10H11C9.89 10 9.01 10.9 9.01 12L9 26C9 27.1 9.89 28 11 28H18V26H11V16ZM11 12H25V14H11V12ZM28.84 22.28L28.13 22.99L26.01 20.87L26.72 20.16C27.11 19.77 27.74 19.77 28.13 20.16L28.84 20.87C29.23 21.26 29.23 21.89 28.84 22.28ZM25.3 21.58L27.42 23.7L22.12 29H20V26.88L25.3 21.58Z" fill="white"/>
</g>
<defs>
<filter id="filter0_d_1255_600" x="0" y="0" width="40" height="40" filterUnits="userSpaceOnUse" color-interpolation-filters="sRGB">
<feFlood flood-opacity="0" result="BackgroundImageFix"/>
<feColorMatrix in="SourceAlpha" type="matrix" values="0 0 0 0 0 0 0 0 0 0 0 0 0 0 0 0 0 0 127 0" result="hardAlpha"/>
<feOffset dx="2" dy="2"/>
<feGaussianBlur stdDeviation="2"/>
<feColorMatrix type="matrix" values="0 0 0 0 0 0 0 0 0 0 0 0 0 0 0 0 0 0 0.15 0"/>
<feBlend mode="normal" in2="BackgroundImageFix" result="effect1_dropShadow_1255_600"/>
<feBlend mode="normal" in="SourceGraphic" in2="effect1_dropShadow_1255_600" result="shape"/>
</filter>
</defs>
</svg>
