<svg width="40" height="40" viewBox="0 0 40 40" fill="none" xmlns="http://www.w3.org/2000/svg">
<g filter="url(#filter0_d)">
<circle cx="18" cy="18" r="16" fill="#2F2A7C"/>
<path d="M25.332 9.83203H10.6654C9.65703 9.83203 8.83203 10.657 8.83203 11.6654V28.1654L12.4987 24.4987H25.332C26.3404 24.4987 27.1654 23.6737 27.1654 22.6654V11.6654C27.1654 10.657 26.3404 9.83203 25.332 9.83203ZM25.332 22.6654H12.4987L10.6654 24.4987V11.6654H25.332V22.6654ZM13.4154 16.2487H15.2487V18.082H13.4154V16.2487ZM17.082 16.2487H18.9154V18.082H17.082V16.2487ZM20.7487 16.2487H22.582V18.082H20.7487V16.2487Z" fill="white"/>
</g>
<defs>
<filter id="filter0_d" x="0" y="0" width="40" height="40" filterUnits="userSpaceOnUse" color-interpolation-filters="sRGB">
<feFlood flood-opacity="0" result="BackgroundImageFix"/>
<feColorMatrix in="SourceAlpha" type="matrix" values="0 0 0 0 0 0 0 0 0 0 0 0 0 0 0 0 0 0 127 0" result="hardAlpha"/>
<feOffset dx="2" dy="2"/>
<feGaussianBlur stdDeviation="2"/>
<feColorMatrix type="matrix" values="0 0 0 0 0 0 0 0 0 0 0 0 0 0 0 0 0 0 0.15 0"/>
<feBlend mode="normal" in2="BackgroundImageFix" result="effect1_dropShadow"/>
<feBlend mode="normal" in="SourceGraphic" in2="effect1_dropShadow" result="shape"/>
</filter>
</defs>
</svg>
