<svg width="40" height="40" viewBox="0 0 40 40" fill="none" xmlns="http://www.w3.org/2000/svg">
<g filter="url(#filter0_d)">
<circle cx="18" cy="18" r="16" fill="#2F2A7C"/>
<path d="M22.5 21.7397C21.8033 21.7397 21.18 22.0147 20.7033 22.4455L14.1675 18.6413C14.2133 18.4305 14.25 18.2197 14.25 17.9997C14.25 17.7797 14.2133 17.5688 14.1675 17.358L20.63 13.5905C21.125 14.0488 21.7758 14.333 22.5 14.333C24.0217 14.333 25.25 13.1047 25.25 11.583C25.25 10.0613 24.0217 8.83301 22.5 8.83301C20.9783 8.83301 19.75 10.0613 19.75 11.583C19.75 11.803 19.7867 12.0138 19.8325 12.2247L13.37 15.9922C12.875 15.5338 12.2242 15.2497 11.5 15.2497C9.97833 15.2497 8.75 16.478 8.75 17.9997C8.75 19.5213 9.97833 20.7497 11.5 20.7497C12.2242 20.7497 12.875 20.4655 13.37 20.0072L19.8967 23.8205C19.8508 24.013 19.8233 24.2147 19.8233 24.4163C19.8233 25.8922 21.0242 27.093 22.5 27.093C23.9758 27.093 25.1767 25.8922 25.1767 24.4163C25.1767 22.9405 23.9758 21.7397 22.5 21.7397ZM22.5 10.6663C23.0042 10.6663 23.4167 11.0788 23.4167 11.583C23.4167 12.0872 23.0042 12.4997 22.5 12.4997C21.9958 12.4997 21.5833 12.0872 21.5833 11.583C21.5833 11.0788 21.9958 10.6663 22.5 10.6663ZM11.5 18.9163C10.9958 18.9163 10.5833 18.5038 10.5833 17.9997C10.5833 17.4955 10.9958 17.083 11.5 17.083C12.0042 17.083 12.4167 17.4955 12.4167 17.9997C12.4167 18.5038 12.0042 18.9163 11.5 18.9163ZM22.5 25.3513C21.9958 25.3513 21.5833 24.9388 21.5833 24.4347C21.5833 23.9305 21.9958 23.518 22.5 23.518C23.0042 23.518 23.4167 23.9305 23.4167 24.4347C23.4167 24.9388 23.0042 25.3513 22.5 25.3513Z" fill="white"/>
</g>
<defs>
<filter id="filter0_d" x="0" y="0" width="40" height="40" filterUnits="userSpaceOnUse" color-interpolation-filters="sRGB">
<feFlood flood-opacity="0" result="BackgroundImageFix"/>
<feColorMatrix in="SourceAlpha" type="matrix" values="0 0 0 0 0 0 0 0 0 0 0 0 0 0 0 0 0 0 127 0" result="hardAlpha"/>
<feOffset dx="2" dy="2"/>
<feGaussianBlur stdDeviation="2"/>
<feColorMatrix type="matrix" values="0 0 0 0 0 0 0 0 0 0 0 0 0 0 0 0 0 0 0.15 0"/>
<feBlend mode="normal" in2="BackgroundImageFix" result="effect1_dropShadow"/>
<feBlend mode="normal" in="SourceGraphic" in2="effect1_dropShadow" result="shape"/>
</filter>
</defs>
</svg>
