<svg width="40" height="40" viewBox="0 0 40 40" fill="none" xmlns="http://www.w3.org/2000/svg">
<g filter="url(#filter0_d)">
<circle cx="18" cy="18" r="16" fill="#2F2A7C"/>
<path d="M19 13V9H9V27H29V13H19ZM13 25H11V23H13V25ZM13 21H11V19H13V21ZM13 17H11V15H13V17ZM13 13H11V11H13V13ZM17 25H15V23H17V25ZM17 21H15V19H17V21ZM17 17H15V15H17V17ZM17 13H15V11H17V13ZM27 25H19V23H21V21H19V19H21V17H19V15H27V25ZM25 17H23V19H25V17ZM25 21H23V23H25V21Z" fill="white"/>
</g>
<defs>
<filter id="filter0_d" x="0" y="0" width="40" height="40" filterUnits="userSpaceOnUse" color-interpolation-filters="sRGB">
<feFlood flood-opacity="0" result="BackgroundImageFix"/>
<feColorMatrix in="SourceAlpha" type="matrix" values="0 0 0 0 0 0 0 0 0 0 0 0 0 0 0 0 0 0 127 0" result="hardAlpha"/>
<feOffset dx="2" dy="2"/>
<feGaussianBlur stdDeviation="2"/>
<feColorMatrix type="matrix" values="0 0 0 0 0 0 0 0 0 0 0 0 0 0 0 0 0 0 0.15 0"/>
<feBlend mode="normal" in2="BackgroundImageFix" result="effect1_dropShadow"/>
<feBlend mode="normal" in="SourceGraphic" in2="effect1_dropShadow" result="shape"/>
</filter>
</defs>
</svg>
