<svg width="40" height="40" viewBox="0 0 40 40" fill="none" xmlns="http://www.w3.org/2000/svg">
<g filter="url(#filter0_d)">
<circle cx="18" cy="18" r="16" fill="#2F2A7C"/>
<path d="M18 7.94922C12.48 7.94922 8 12.4292 8 17.9492C8 23.4692 12.48 27.9492 18 27.9492H23V25.9492H18C13.66 25.9492 10 22.2892 10 17.9492C10 13.6092 13.66 9.94922 18 9.94922C22.34 9.94922 26 13.6092 26 17.9492V19.3792C26 20.1692 25.29 20.9492 24.5 20.9492C23.71 20.9492 23 20.1692 23 19.3792V17.9492C23 15.1892 20.76 12.9492 18 12.9492C15.24 12.9492 13 15.1892 13 17.9492C13 20.7092 15.24 22.9492 18 22.9492C19.38 22.9492 20.64 22.3892 21.54 21.4792C22.19 22.3692 23.31 22.9492 24.5 22.9492C26.47 22.9492 28 21.3492 28 19.3792V17.9492C28 12.4292 23.52 7.94922 18 7.94922ZM18 20.9492C16.34 20.9492 15 19.6092 15 17.9492C15 16.2892 16.34 14.9492 18 14.9492C19.66 14.9492 21 16.2892 21 17.9492C21 19.6092 19.66 20.9492 18 20.9492Z" fill="white"/>
</g>
<defs>
<filter id="filter0_d" x="0" y="0" width="40" height="40" filterUnits="userSpaceOnUse" color-interpolation-filters="sRGB">
<feFlood flood-opacity="0" result="BackgroundImageFix"/>
<feColorMatrix in="SourceAlpha" type="matrix" values="0 0 0 0 0 0 0 0 0 0 0 0 0 0 0 0 0 0 127 0" result="hardAlpha"/>
<feOffset dx="2" dy="2"/>
<feGaussianBlur stdDeviation="2"/>
<feColorMatrix type="matrix" values="0 0 0 0 0 0 0 0 0 0 0 0 0 0 0 0 0 0 0.15 0"/>
<feBlend mode="normal" in2="BackgroundImageFix" result="effect1_dropShadow"/>
<feBlend mode="normal" in="SourceGraphic" in2="effect1_dropShadow" result="shape"/>
</filter>
</defs>
</svg>
