<svg width="24" height="21" viewBox="0 0 24 21" fill="none" xmlns="http://www.w3.org/2000/svg">
<path fill-rule="evenodd" clip-rule="evenodd" d="M20 2.76562H4C2.9 2.76562 2 3.51984 2 4.44166V16.1739C2 17.0957 2.9 17.8499 4 17.8499H20C21.1 17.8499 22 17.0957 22 16.1739V4.44166C22 3.51984 21.1 2.76562 20 2.76562ZM20 16.1739H4V4.44166H20V16.1739Z" fill="white"/>
<path fill-rule="evenodd" clip-rule="evenodd" d="M19.41 8.98295L17.99 7.79297L14.82 10.4495L13.41 9.2595L12 10.4411L14.82 12.8211L19.41 8.98295Z" fill="white"/>
<path d="M10 6.11719H5V7.79322H10V6.11719Z" fill="white"/>
<path d="M10 9.46875H5V11.1448H10V9.46875Z" fill="white"/>
<path d="M10 12.8203H5V14.4963H10V12.8203Z" fill="white"/>
</svg>
