<svg width="52" height="52" viewBox="0 0 52 52" fill="none" xmlns="http://www.w3.org/2000/svg">
<path d="M49.8346 26L44.548 19.9767L45.2846 12.0033L37.463 10.2267L33.368 3.33667L26.0013 6.5L18.6346 3.33667L14.5396 10.2267L6.71797 11.9817L7.45464 19.955L2.16797 26L7.45464 32.0233L6.71797 40.0183L14.5396 41.795L18.6346 48.685L26.0013 45.5L33.368 48.6633L37.463 41.7733L45.2846 39.9967L44.548 32.0233L49.8346 26ZM40.063 30.5717L40.6263 36.6167L34.6896 37.96L31.5913 43.1817L26.0013 40.7767L20.4113 43.1817L17.313 37.96L11.3763 36.6167L11.9396 30.55L7.9313 26L11.9396 21.4067L11.3763 15.3833L17.313 14.0617L20.4113 8.84L26.0013 11.2233L31.5913 8.81834L34.6896 14.04L40.6263 15.3833L40.063 21.4283L44.0713 26L40.063 30.5717ZM23.8346 32.5H28.168V36.8333H23.8346V32.5ZM23.8346 15.1667H28.168V28.1667H23.8346V15.1667Z" fill="white"/>
</svg>
