<svg width="40" height="40" viewBox="0 0 40 40" fill="none" xmlns="http://www.w3.org/2000/svg">
<path d="M28.334 11.667H21.6673V15.0003H28.334C31.084 15.0003 33.334 17.2503 33.334 20.0003C33.334 22.7503 31.084 25.0003 28.334 25.0003H21.6673V28.3337H28.334C32.934 28.3337 36.6673 24.6003 36.6673 20.0003C36.6673 15.4003 32.934 11.667 28.334 11.667ZM18.334 25.0003H11.6673C8.91732 25.0003 6.66732 22.7503 6.66732 20.0003C6.66732 17.2503 8.91732 15.0003 11.6673 15.0003H18.334V11.667H11.6673C7.06732 11.667 3.33398 15.4003 3.33398 20.0003C3.33398 24.6003 7.06732 28.3337 11.6673 28.3337H18.334V25.0003ZM13.334 18.3337H26.6673V21.667H13.334V18.3337Z" fill="white"/>
</svg>
