<svg width="32" height="32" viewBox="0 0 32 32" fill="none" xmlns="http://www.w3.org/2000/svg">
<g filter="url(#filter0_d_1041:526)">
<circle cx="14" cy="14" r="12" fill="black"/>
<path d="M18.0575 14.75L19.25 15.9425L18.1925 17L17 15.8075L15.8075 17L14.75 15.9425L15.9425 14.75L14.75 13.5575L15.8075 12.5L17 13.6925L18.1925 12.5L19.25 13.5575L18.0575 14.75ZM20 9.5H14L12.5 8H8C7.175 8 6.5075 8.675 6.5075 9.5L6.5 18.5C6.5 19.325 7.175 20 8 20H20C20.825 20 21.5 19.325 21.5 18.5V11C21.5 10.175 20.825 9.5 20 9.5ZM20 18.5H8V9.5H11.8775L13.3775 11H20V18.5Z" fill="white"/>
</g>
<defs>
<filter id="filter0_d_1041:526" x="0" y="0" width="32" height="32" filterUnits="userSpaceOnUse" color-interpolation-filters="sRGB">
<feFlood flood-opacity="0" result="BackgroundImageFix"/>
<feColorMatrix in="SourceAlpha" type="matrix" values="0 0 0 0 0 0 0 0 0 0 0 0 0 0 0 0 0 0 127 0" result="hardAlpha"/>
<feOffset dx="2" dy="2"/>
<feGaussianBlur stdDeviation="2"/>
<feColorMatrix type="matrix" values="0 0 0 0 0 0 0 0 0 0 0 0 0 0 0 0 0 0 0.15 0"/>
<feBlend mode="normal" in2="BackgroundImageFix" result="effect1_dropShadow_1041:526"/>
<feBlend mode="normal" in="SourceGraphic" in2="effect1_dropShadow_1041:526" result="shape"/>
</filter>
</defs>
</svg>
