<svg width="32" height="32" viewBox="0 0 32 32" fill="none" xmlns="http://www.w3.org/2000/svg">
<circle cx="16" cy="16" r="16" fill="#AAAAAA"/>
<path d="M18.7487 9.66536V16.082H9.73786L9.19703 16.6229L8.66536 17.1545V9.66536H18.7487ZM19.6654 7.83203H7.7487C7.24453 7.83203 6.83203 8.24453 6.83203 8.7487V21.582L10.4987 17.9154H19.6654C20.1695 17.9154 20.582 17.5029 20.582 16.9987V8.7487C20.582 8.24453 20.1695 7.83203 19.6654 7.83203ZM24.2487 11.4987H22.4154V19.7487H10.4987V21.582C10.4987 22.0862 10.9112 22.4987 11.4154 22.4987H21.4987L25.1654 26.1654V12.4154C25.1654 11.9112 24.7529 11.4987 24.2487 11.4987Z" fill="white"/>
</svg>
