<svg width="40" height="40" viewBox="0 0 40 40" fill="none" xmlns="http://www.w3.org/2000/svg">
<g filter="url(#filter0_d)">
<circle cx="20" cy="18" r="16" fill="#283789"/>
<g clip-path="url(#clip0)">
<path d="M30.9984 12.8719C30.2291 13.2284 29.4599 13.4513 28.6454 13.5404C29.5052 13.0501 30.1386 12.2479 30.4554 11.312C29.6409 11.7577 28.7812 12.1142 27.831 12.2925C27.0617 11.4903 26.021 11 24.8445 11C22.5821 11 20.7269 12.8273 20.7269 15.0557C20.7269 15.3677 20.7721 15.6797 20.8174 15.9916C17.4237 15.8134 14.392 14.2089 12.3558 11.7577C12.0391 12.337 11.8129 13.0501 11.8129 13.7632C11.8129 15.1448 12.5368 16.3928 13.6228 17.1058C12.9441 17.1058 12.3106 16.883 11.7676 16.6156V16.6602C11.7676 18.6212 13.1703 20.2702 15.0708 20.6267C14.7088 20.7159 14.3468 20.7604 13.9848 20.7604C13.7133 20.7604 13.4418 20.7159 13.2156 20.6713C13.7586 22.2758 15.2518 23.4345 17.0617 23.4791C15.659 24.5487 13.8943 25.2173 11.9486 25.2173C11.6319 25.2173 11.2699 25.2173 10.9531 25.1727C12.7631 26.3315 14.935 27 17.2427 27C24.7993 27 28.9169 20.8496 28.9169 15.5014C28.9169 15.3231 28.9169 15.1448 28.9169 14.9666C29.7314 14.4318 30.4554 13.7187 30.9984 12.8719Z" fill="white"/>
</g>
</g>
<defs>
<filter id="filter0_d" x="0" y="0" width="40" height="40" filterUnits="userSpaceOnUse" color-interpolation-filters="sRGB">
<feFlood flood-opacity="0" result="BackgroundImageFix"/>
<feColorMatrix in="SourceAlpha" type="matrix" values="0 0 0 0 0 0 0 0 0 0 0 0 0 0 0 0 0 0 127 0" result="hardAlpha"/>
<feOffset dy="2"/>
<feGaussianBlur stdDeviation="2"/>
<feColorMatrix type="matrix" values="0 0 0 0 0 0 0 0 0 0 0 0 0 0 0 0 0 0 0.25 0"/>
<feBlend mode="normal" in2="BackgroundImageFix" result="effect1_dropShadow"/>
<feBlend mode="normal" in="SourceGraphic" in2="effect1_dropShadow" result="shape"/>
</filter>
<clipPath id="clip0">
<rect width="20" height="16" fill="white" transform="translate(11 11)"/>
</clipPath>
</defs>
</svg>
