<svg width="44" height="44" viewBox="0 0 44 44" fill="none" xmlns="http://www.w3.org/2000/svg">
<path d="M7.33464 11H3.66797V36.6667C3.66797 38.6833 5.31797 40.3333 7.33464 40.3333H33.0013V36.6667H7.33464V11ZM36.668 3.66666H14.668C12.6513 3.66666 11.0013 5.31666 11.0013 7.33332V29.3333C11.0013 31.35 12.6513 33 14.668 33H36.668C38.6846 33 40.3346 31.35 40.3346 29.3333V7.33332C40.3346 5.31666 38.6846 3.66666 36.668 3.66666ZM31.168 7.33332V16.5L29.3346 15.125L27.5013 16.5V7.33332H31.168ZM36.668 29.3333H14.668V7.33332H23.8346V23.8333L29.3346 19.7083L34.8346 23.8333V7.33332H36.668V29.3333Z" fill="#2F2A7C"/>
</svg>
