<svg width="80" height="80" viewBox="0 0 80 80" fill="none" xmlns="http://www.w3.org/2000/svg">
<path d="M46.6663 6.66602H19.9997C16.333 6.66602 13.3663 9.66602 13.3663 13.3327L13.333 66.666C13.333 70.3327 16.2997 73.3327 19.9663 73.3327H59.9997C63.6663 73.3327 66.6663 70.3327 66.6663 66.666V26.666L46.6663 6.66602ZM19.9997 13.3327H43.333L59.9997 29.9994V58.5994L53.8663 52.466C58.133 45.9993 57.433 37.2327 51.733 31.5327C48.4997 28.2994 44.2663 26.666 39.9997 26.666C35.733 26.666 31.4997 28.2994 28.233 31.5327C21.733 38.0327 21.733 48.566 28.233 55.0327C31.4663 58.266 35.733 59.8993 39.9997 59.8993C43.1997 59.8993 46.3997 58.966 49.1663 57.1327L58.6663 66.666H19.9997V13.3327ZM47.033 50.3327C45.1663 52.1994 42.6663 53.266 39.9997 53.266C37.333 53.266 34.833 52.2327 32.9663 50.3327C31.0997 48.466 30.033 45.966 30.033 43.2993C30.033 40.6327 31.0663 38.1327 32.9663 36.266C34.833 34.366 37.333 33.3327 39.9997 33.3327C42.6663 33.3327 45.1663 34.366 47.033 36.266C48.8997 38.1327 49.9663 40.6327 49.9663 43.2993C49.9663 45.966 48.933 48.466 47.033 50.3327Z" fill="white"/>
</svg>
