<svg width="44" height="44" viewBox="0 0 44 44" fill="none" xmlns="http://www.w3.org/2000/svg">
<path d="M21.9987 11C24.0237 11 25.6654 9.35837 25.6654 7.33332C25.6654 5.30828 24.0237 3.66666 21.9987 3.66666C19.9737 3.66666 18.332 5.30828 18.332 7.33332C18.332 9.35837 19.9737 11 21.9987 11Z" fill="#2F2A7C"/>
<path d="M29.1304 14.8683C28.4154 14.1533 27.187 12.8333 24.8037 12.8333C24.4187 12.8333 22.2004 12.8333 20.147 12.8333C15.1054 12.815 10.9987 8.70832 10.9987 3.66666H7.33203C7.33203 9.45999 11.2004 14.3733 16.4987 15.9683V40.3333H20.1654V29.3333H23.832V40.3333H27.4987V18.425L34.7404 25.6667L37.3254 23.0817L29.1304 14.8683Z" fill="#2F2A7C"/>
</svg>
