<svg width="44" height="44" viewBox="0 0 44 44" fill="none" xmlns="http://www.w3.org/2000/svg">
<path d="M20.1667 16.5H23.8333V20.1667H20.1667V16.5ZM27.5 16.5H31.1667V20.1667H27.5V16.5ZM36.6667 28.4167C34.375 28.4167 32.175 28.05 30.1217 27.3717C29.9383 27.3167 29.7367 27.28 29.5533 27.28C29.0767 27.28 28.6183 27.4633 28.2517 27.8117L24.2183 31.845C19.03 29.205 14.7767 24.97 12.1367 19.7817L16.17 15.73C16.6833 15.235 16.83 14.52 16.6283 13.8783C15.95 11.825 15.5833 9.625 15.5833 7.33333C15.5833 6.325 14.7583 5.5 13.75 5.5H7.33333C6.325 5.5 5.5 6.325 5.5 7.33333C5.5 24.5483 19.4517 38.5 36.6667 38.5C37.675 38.5 38.5 37.675 38.5 36.6667V30.25C38.5 29.2417 37.675 28.4167 36.6667 28.4167ZM9.22167 9.16667H11.9717C12.1 10.78 12.375 12.375 12.815 13.915L10.615 16.1333C9.86333 13.915 9.38667 11.5867 9.22167 9.16667ZM34.8333 34.7783C32.4133 34.6133 30.0667 34.1367 27.8667 33.385L30.0667 31.185C31.625 31.625 33.22 31.9 34.8333 32.01V34.7783ZM34.8333 16.5H38.5V20.1667H34.8333V16.5Z" fill="#2F2A7C"/>
</svg>
