<svg width="52" height="52" viewBox="0 0 52 52" fill="none" xmlns="http://www.w3.org/2000/svg">
<g opacity="0.8">
<path d="M45.5013 17.3334C42.3596 17.3334 40.6046 20.4534 41.3196 22.7717L33.628 30.485C32.978 30.29 32.0246 30.29 31.3746 30.485L25.8496 24.96C26.5863 22.6417 24.8313 19.5 21.668 19.5C18.5263 19.5 16.7496 22.62 17.4863 24.96L7.6063 34.8184C5.28797 34.1034 2.16797 35.8584 2.16797 39C2.16797 41.3834 4.11797 43.3334 6.5013 43.3334C9.64297 43.3334 11.398 40.2134 10.683 37.895L20.5413 28.015C21.1913 28.21 22.1446 28.21 22.7946 28.015L28.3196 33.54C27.583 35.8584 29.338 39 32.5013 39C35.643 39 37.4196 35.88 36.683 33.54L44.3963 25.8484C46.7146 26.5634 49.8346 24.8084 49.8346 21.6667C49.8346 19.2834 47.8846 17.3334 45.5013 17.3334Z" fill="black"/>
<path d="M32.5 19.5L34.5367 15.015L39 13L34.5367 10.985L32.5 6.5L30.5067 10.985L26 13L30.5067 15.015L32.5 19.5Z" fill="black"/>
<path d="M7.58464 23.8333L8.66797 19.5L13.0013 18.4167L8.66797 17.3333L7.58464 13L6.5013 17.3333L2.16797 18.4167L6.5013 19.5L7.58464 23.8333Z" fill="black"/>
</g>
</svg>
