<svg width="80" height="80" viewBox="0 0 80 80" fill="none" xmlns="http://www.w3.org/2000/svg">
<path d="M59.9994 26.6641C52.6327 26.6641 46.666 32.6307 46.666 39.9974C46.666 47.3641 52.6327 53.3307 59.9994 53.3307C67.366 53.3307 73.3327 47.3641 73.3327 39.9974C73.3327 32.6307 67.366 26.6641 59.9994 26.6641ZM51.666 39.9974C51.666 35.3974 55.3994 31.6641 59.9994 31.6641C61.3994 31.6641 62.666 32.0307 63.8327 32.6307L52.6327 43.8307C52.0327 42.6641 51.666 41.3974 51.666 39.9974ZM59.9994 48.3307C58.5994 48.3307 57.3327 47.9641 56.166 47.3641L67.366 36.1641C67.966 37.3307 68.3327 38.5974 68.3327 39.9974C68.3327 44.5974 64.5994 48.3307 59.9994 48.3307Z" fill="white"/>
<path d="M56.666 59.9987H23.3327V19.9987H56.666V23.332H63.3327V19.9987V16.6654V9.9987C63.3327 6.33203 60.3327 3.33203 56.666 3.33203H23.3327C19.666 3.33203 16.666 6.33203 16.666 9.9987V69.9987C16.666 73.6654 19.666 76.6654 23.3327 76.6654H56.666C60.3327 76.6654 63.3327 73.6654 63.3327 69.9987V63.332V59.9987V56.6654H56.666V59.9987ZM23.3327 9.9987H56.666V13.332H23.3327V9.9987ZM56.666 69.9987H23.3327V66.6654H56.666V69.9987Z" fill="white"/>
</svg>
