<svg width="80" height="80" viewBox="0 0 80 80" fill="none" xmlns="http://www.w3.org/2000/svg">
<path d="M36.667 78.634V66.634C19.967 65.7673 6.66699 51.9007 6.66699 35.0007C6.66699 17.534 20.867 3.33398 38.3337 3.33398C55.8003 3.33398 70.0003 17.534 70.0003 35.0007C70.0003 51.5007 58.5337 68.1007 41.4337 76.334L36.667 78.634ZM38.3337 10.0007C24.5337 10.0007 13.3337 21.2007 13.3337 35.0007C13.3337 48.8007 24.5337 60.0007 38.3337 60.0007H43.3337V67.6673C55.467 60.0007 63.3337 47.4007 63.3337 35.0007C63.3337 21.2007 52.1337 10.0007 38.3337 10.0007ZM35.0003 48.334H41.667V55.0007H35.0003V48.334ZM41.667 43.334H35.0003C35.0003 32.5007 45.0003 33.334 45.0003 26.6673C45.0003 23.0007 42.0003 20.0007 38.3337 20.0007C34.667 20.0007 31.667 23.0007 31.667 26.6673H25.0003C25.0003 19.3007 30.967 13.334 38.3337 13.334C45.7003 13.334 51.667 19.3007 51.667 26.6673C51.667 35.0007 41.667 35.834 41.667 43.334Z" fill="white"/>
</svg>
