<svg width="44" height="44" viewBox="0 0 44 44" fill="none" xmlns="http://www.w3.org/2000/svg">
<path d="M36.668 3.66666H7.33464C5.31797 3.66666 3.6863 5.31666 3.6863 7.33332L3.66797 40.3333L11.0013 33H36.668C38.6846 33 40.3346 31.35 40.3346 29.3333V7.33332C40.3346 5.31666 38.6846 3.66666 36.668 3.66666ZM36.668 29.3333H9.47964L8.39797 30.415L7.33464 31.4783V7.33332H36.668V29.3333ZM11.0013 22H14.668V25.6667H11.0013V22ZM11.0013 16.5H14.668V20.1667H11.0013V16.5ZM11.0013 11H14.668V14.6667H11.0013V11ZM18.3346 22H27.5013V25.6667H18.3346V22ZM18.3346 16.5H33.0013V20.1667H18.3346V16.5ZM18.3346 11H33.0013V14.6667H18.3346V11Z" fill="#2F2A7C"/>
</svg>
